<?xml version="1.0" encoding="utf-8"?>
<!-- Generator: Adobe Illustrator 16.0.0, SVG Export Plug-In . SVG Version: 6.00 Build 0)  -->
<!DOCTYPE svg PUBLIC "-//W3C//DTD SVG 1.1//EN" "http://www.w3.org/Graphics/SVG/1.1/DTD/svg11.dtd">
<svg version="1.1" id="Layer_1" xmlns="http://www.w3.org/2000/svg" xmlns:xlink="http://www.w3.org/1999/xlink" x="0px" y="0px"
	 width="47.749px" height="47.006px" viewBox="0 0 47.749 47.006" enable-background="new 0 0 47.749 47.006" xml:space="preserve">
<g>
	
		<rect x="0.488" y="0.483" fill="none" stroke="#000000" stroke-width="0.95" stroke-miterlimit="10" width="46.79" height="46.046"/>
	<path d="M23.087,30.486c0,1.212-0.125,2.348-0.374,3.411c-0.252,1.063-0.667,1.994-1.242,2.792
		c-0.576,0.798-1.339,1.425-2.282,1.88c-0.945,0.46-2.099,0.688-3.457,0.688c-0.946,0-1.816-0.11-2.614-0.33
		c-0.794-0.223-1.489-0.548-2.08-0.978c-0.593-0.427-1.056-0.938-1.394-1.526c-0.344-0.591-0.511-1.258-0.511-1.994
		c0-0.886,0.252-1.602,0.754-2.15c0.501-0.545,1.238-0.816,2.215-0.816c0.442,0,0.811,0.072,1.107,0.22
		c0.296,0.148,0.523,0.317,0.686,0.51c0.163,0.191,0.281,0.406,0.353,0.642c0.074,0.239,0.112,0.442,0.112,0.619
		c0,0.327-0.043,0.607-0.135,0.844c-0.085,0.235-0.178,0.473-0.264,0.708c-0.09,0.237-0.179,0.488-0.266,0.754
		s-0.131,0.604-0.131,1.018c0,0.681,0.199,1.159,0.598,1.44c0.397,0.28,0.935,0.422,1.612,0.422c0.86,0,1.552-0.319,2.086-0.954
		c0.53-0.634,0.796-1.749,0.796-3.345V7.672h-4.916V7.051h14.262v0.621h-4.917V30.486z"/>
	<path d="M37.92,28.951c-0.678,2.806-1.759,5.019-3.233,6.645c-1.476,1.626-3.514,2.438-6.111,2.438h-6.088l-0.002,0.619h15.923
		v-9.701H37.92z"/>
</g>
</svg>
