<?xml version="1.0" encoding="utf-8"?>
<!-- Generator: Adobe Illustrator 16.0.0, SVG Export Plug-In . SVG Version: 6.00 Build 0)  -->
<!DOCTYPE svg PUBLIC "-//W3C//DTD SVG 1.1//EN" "http://www.w3.org/Graphics/SVG/1.1/DTD/svg11.dtd">
<svg version="1.1" id="Layer_1" xmlns="http://www.w3.org/2000/svg" xmlns:xlink="http://www.w3.org/1999/xlink" x="0px" y="0px"
	 width="390px" height="57px" viewBox="0 0 390 57" enable-background="new 0 0 390 57" xml:space="preserve">
<g>
	<path d="M13.117,23.924c0,1.124-0.115,2.181-0.348,3.16c-0.235,0.986-0.618,1.853-1.15,2.592c-0.535,0.739-1.239,1.319-2.117,1.742
		c-0.875,0.422-1.943,0.637-3.2,0.637c-0.878,0-1.685-0.1-2.423-0.308c-0.743-0.202-1.385-0.503-1.933-0.902
		C1.4,30.451,0.97,29.974,0.656,29.43c-0.316-0.55-0.471-1.164-0.471-1.853c0-0.816,0.229-1.482,0.696-1.989
		c0.464-0.504,1.148-0.762,2.051-0.762c0.416,0,0.757,0.07,1.028,0.21c0.273,0.131,0.486,0.292,0.641,0.471
		c0.146,0.175,0.256,0.375,0.326,0.599c0.067,0.214,0.102,0.409,0.102,0.573c0,0.301-0.043,0.559-0.121,0.779
		c-0.082,0.219-0.167,0.435-0.248,0.657c-0.083,0.221-0.167,0.449-0.247,0.697c-0.08,0.244-0.124,0.562-0.124,0.947
		c0,0.628,0.182,1.07,0.555,1.331c0.369,0.262,0.867,0.391,1.497,0.391c0.793,0,1.44-0.296,1.931-0.883
		c0.497-0.591,0.741-1.623,0.741-3.102V2.775h-4.56V2.202h13.222v0.573h-4.558V23.924z"/>
	<path d="M19.771,16.776c0-2.186,0.431-4.211,1.293-6.077c0.86-1.86,1.973-3.476,3.322-4.844c1.36-1.374,2.888-2.442,4.583-3.221
		c1.697-0.784,3.394-1.171,5.092-1.171c1.808,0,3.569,0.387,5.273,1.171c1.715,0.779,3.24,1.848,4.583,3.221
		c1.34,1.368,2.416,2.984,3.222,4.844c0.808,1.865,1.211,3.891,1.211,6.077c0,1.917-0.366,3.797-1.105,5.63
		c-0.739,1.832-1.757,3.464-3.041,4.886c-1.289,1.424-2.799,2.574-4.537,3.448c-1.742,0.878-3.61,1.312-5.607,1.312
		c-2.055,0-3.958-0.422-5.708-1.273c-1.753-0.844-3.266-1.976-4.539-3.385c-1.271-1.408-2.265-3.039-2.977-4.886
		C20.124,20.66,19.771,18.749,19.771,16.776 M24.493,16.776c0,2.467,0.162,4.618,0.491,6.451c0.33,1.835,0.878,3.368,1.644,4.597
		c0.769,1.231,1.752,2.147,2.958,2.751c1.205,0.605,2.694,0.905,4.477,0.905c1.748,0,3.237-0.3,4.454-0.905
		c1.219-0.604,2.212-1.52,2.978-2.751c0.767-1.229,1.316-2.762,1.645-4.597c0.329-1.833,0.49-3.984,0.49-6.451
		c0-1.882-0.121-3.715-0.37-5.477c-0.244-1.765-0.715-3.341-1.414-4.726c-0.701-1.384-1.671-2.483-2.916-3.305
		c-1.246-0.821-2.871-1.232-4.867-1.232c-1.998,0-3.62,0.411-4.867,1.232c-1.248,0.822-2.217,1.92-2.917,3.305
		c-0.698,1.384-1.169,2.96-1.417,4.726C24.617,13.061,24.493,14.894,24.493,16.776"/>
	<polygon points="50.365,30.865 54.923,30.865 54.923,2.776 50.365,2.776 50.365,2.2 59.152,2.2 73.035,24.581 73.115,24.581 
		73.115,2.776 68.557,2.776 68.557,2.2 78.292,2.2 78.292,2.776 73.731,2.776 73.731,32.015 72.912,32.015 55.62,4.459 
		55.539,4.459 55.539,30.865 60.099,30.865 60.099,31.438 50.365,31.438 	"/>
	<path d="M75.21,30.865h3.615L89.911,1.462h0.986l11.171,29.403h3.654v0.573H93.076v-0.573h4.557L93.32,19.451h-9.529l-4.308,11.415
		h4.559v0.573H75.21V30.865z M88.556,6.924l-4.514,11.949h9.034L88.556,6.924z"/>
	<path d="M108.391,30.865h4.559V2.776h-2.384c-0.544,0-1.16,0.045-1.844,0.145c-0.688,0.09-1.374,0.36-2.075,0.798
		c-0.699,0.437-1.369,1.128-2.011,2.076c-0.644,0.943-1.198,2.248-1.665,3.916h-0.45V2.2h24.969v7.512h-0.454
		c-0.467-1.668-1.021-2.973-1.666-3.916c-0.642-0.948-1.313-1.64-2.01-2.076c-0.698-0.438-1.385-0.708-2.077-0.798
		c-0.682-0.1-1.298-0.145-1.845-0.145h-2.378v28.089h4.556v0.573h-13.225V30.865z"/>
	<polygon points="128.64,30.865 133.196,30.865 133.196,2.776 128.64,2.776 128.64,2.2 141.862,2.2 141.862,2.776 137.304,2.776 
		137.304,16.203 150.979,16.203 150.979,2.776 146.417,2.776 146.417,2.2 159.645,2.2 159.645,2.776 155.083,2.776 155.083,30.865 
		159.645,30.865 159.645,31.438 146.417,31.438 146.417,30.865 150.979,30.865 150.979,16.776 137.304,16.776 137.304,30.865 
		141.862,30.865 141.862,31.438 128.64,31.438 	"/>
	<path d="M159.19,30.865h3.614l11.088-29.403h0.985l11.168,29.403h3.659v0.573h-12.65v-0.573h4.557l-4.309-11.415h-9.529
		l-4.314,11.415h4.56v0.573h-8.83V30.865z M172.536,6.924l-4.516,11.949h9.036L172.536,6.924z"/>
	<polygon points="188.88,30.865 193.441,30.865 193.441,2.776 188.88,2.776 188.88,2.2 197.668,2.2 211.551,24.581 211.632,24.581 
		211.632,2.776 207.074,2.776 207.074,2.2 216.804,2.2 216.804,2.776 212.246,2.776 212.246,32.015 211.426,32.015 194.138,4.459 
		194.054,4.459 194.054,30.865 198.616,30.865 198.616,31.438 188.88,31.438 	"/>
	<path d="M227.032,30.865h4.558V2.776h-4.558V2.2h13.224v0.576h-4.562v28.089h7.311c2.409,0,4.301-0.753,5.669-2.257
		c1.366-1.505,2.368-3.561,2.998-6.159h0.453v8.989h-25.093V30.865z"/>
	<path d="M253.517,30.865h4.561V2.776h-4.561V2.2h23.493v7.102h-0.454c-0.354-1.063-0.736-2.002-1.147-2.81
		c-0.414-0.808-0.906-1.495-1.479-2.057c-0.573-0.557-1.26-0.977-2.054-1.248c-0.795-0.273-1.753-0.412-2.874-0.412h-6.817v12.69
		h2.671c0.899,0,1.669-0.081,2.299-0.246c0.627-0.165,1.168-0.478,1.622-0.927c0.453-0.448,0.833-1.066,1.149-1.846
		c0.315-0.783,0.623-1.786,0.926-3.02h0.45v12.771h-0.45c-0.194-0.792-0.392-1.559-0.598-2.3c-0.206-0.737-0.492-1.393-0.865-1.974
		c-0.366-0.571-0.861-1.03-1.479-1.373c-0.613-0.341-1.413-0.514-2.399-0.514h-3.326v14.827h7.76c1.507,0,2.761-0.322,3.762-0.966
		c0.996-0.642,1.812-1.409,2.44-2.301c0.632-0.886,1.096-1.812,1.396-2.773c0.303-0.955,0.493-1.75,0.577-2.376h0.449v8.989h-25.053
		V30.865z"/>
	<path d="M311.339,20.97h-3.286v9.319h-0.49c-0.303-0.303-0.551-0.508-0.738-0.613c-0.193-0.112-0.495-0.164-0.904-0.164
		c-0.495,0-0.996,0.126-1.499,0.389c-0.508,0.258-1.099,0.554-1.769,0.879c-0.666,0.331-1.455,0.627-2.358,0.888
		c-0.904,0.258-2,0.386-3.285,0.386c-1.946,0-3.671-0.318-5.174-0.962c-1.51-0.642-2.96-1.662-4.354-3.06
		c-1.368-1.37-2.502-2.983-3.413-4.847c-0.898-1.86-1.35-3.956-1.35-6.28c0-1.563,0.174-2.965,0.532-4.211
		c0.351-1.243,0.787-2.335,1.294-3.264c0.507-0.93,1.025-1.712,1.559-2.339c0.535-0.634,0.98-1.124,1.338-1.481
		c1.229-1.233,2.638-2.231,4.23-2.995c1.586-0.769,3.392-1.151,5.42-1.151c1.039,0,1.892,0.081,2.568,0.246
		c0.666,0.165,1.249,0.349,1.741,0.556c0.493,0.205,0.938,0.385,1.337,0.552c0.398,0.163,0.84,0.246,1.335,0.246
		c0.543,0,0.937-0.073,1.168-0.229c0.231-0.149,0.457-0.359,0.68-0.634h0.616v8.215h-0.454c-0.108-0.711-0.321-1.549-0.635-2.505
		c-0.315-0.96-0.808-1.878-1.479-2.756c-0.675-0.873-1.562-1.613-2.672-2.214c-1.104-0.602-2.523-0.903-4.247-0.903
		c-2.054,0-3.702,0.432-4.948,1.293c-1.25,0.859-2.218,1.997-2.916,3.408c-0.701,1.411-1.168,3.005-1.398,4.785
		c-0.23,1.779-0.347,3.57-0.347,5.381c0,1.232,0.054,2.462,0.164,3.692c0.107,1.232,0.295,2.396,0.552,3.491
		c0.262,1.098,0.623,2.109,1.089,3.042c0.464,0.93,1.07,1.726,1.807,2.383c0.823,0.739,1.671,1.249,2.548,1.54
		c0.876,0.283,2.008,0.429,3.409,0.429c0.847,0,1.694-0.146,2.546-0.429c0.851-0.291,1.606-0.72,2.279-1.293
		c0.67-0.578,1.216-1.314,1.645-2.198c0.422-0.892,0.63-1.938,0.63-3.143V20.97h-5.294v-0.575h12.524V20.97z"/>
	<path d="M310.56,30.865h3.614l11.088-29.403h0.989l11.166,29.403h3.653v0.573h-12.648v-0.573h4.561l-4.312-11.415h-9.526
		l-4.311,11.415h4.56v0.573h-8.833V30.865z M323.906,6.924l-4.514,11.949h9.029L323.906,6.924z"/>
	<path d="M343.741,30.865h4.559V2.776h-2.383c-0.548,0-1.163,0.045-1.847,0.145c-0.686,0.09-1.378,0.36-2.071,0.798
		c-0.703,0.437-1.373,1.128-2.015,2.076c-0.644,0.943-1.199,2.248-1.663,3.916h-0.449V2.2h24.965v7.512h-0.451
		c-0.467-1.668-1.021-2.973-1.66-3.916c-0.647-0.948-1.317-1.64-2.013-2.076c-0.698-0.438-1.391-0.708-2.078-0.798
		c-0.684-0.1-1.297-0.145-1.844-0.145h-2.384v28.089h4.558v0.573h-13.224V30.865z"/>
	<path d="M363.984,30.865h4.562V2.776h-4.562V2.2h23.49v7.102h-0.452c-0.354-1.063-0.736-2.002-1.146-2.81
		c-0.413-0.808-0.906-1.495-1.479-2.057c-0.578-0.557-1.261-0.977-2.054-1.248c-0.795-0.273-1.753-0.412-2.877-0.412h-6.816v12.69
		h2.67c0.902,0,1.668-0.081,2.299-0.246c0.632-0.165,1.171-0.478,1.622-0.927c0.451-0.448,0.839-1.066,1.155-1.846
		c0.308-0.783,0.616-1.786,0.919-3.02h0.454v12.771h-0.454c-0.195-0.792-0.389-1.559-0.596-2.3c-0.202-0.737-0.49-1.393-0.862-1.974
		c-0.367-0.571-0.859-1.03-1.477-1.373c-0.616-0.341-1.417-0.514-2.404-0.514h-3.326v14.827h7.766c1.5,0,2.752-0.322,3.756-0.966
		c0.998-0.642,1.812-1.409,2.441-2.301c0.631-0.886,1.098-1.812,1.398-2.773c0.297-0.955,0.492-1.75,0.572-2.376h0.451v8.989
		h-25.051V30.865z"/>
	<rect x="41.789" y="46.244" width="1.062" height="9.408"/>
	<polygon points="52.018,46.244 53.014,46.244 58.945,53.784 58.945,46.244 59.982,46.244 59.982,55.652 59.136,55.652 
		53.054,47.938 53.054,55.652 52.018,55.652 	"/>
	<polygon points="71.542,47.221 68.384,47.221 68.384,46.244 75.781,46.244 75.781,47.221 72.62,47.221 72.62,55.652 71.542,55.652 
			"/>
	<polygon points="84.179,46.244 90.983,46.244 90.983,47.211 85.24,47.211 85.24,50.425 90.38,50.425 90.38,51.394 85.24,51.394 
		85.24,54.688 91.05,54.688 91.05,55.652 84.179,55.652 	"/>
	<path d="M99.599,46.244h4.046c1.157,0,2.085,0.348,2.677,0.934c0.46,0.46,0.729,1.122,0.729,1.86v0.029
		c0,1.557-1.078,2.471-2.559,2.74l2.894,3.845h-1.306L103.352,52h-0.029h-2.663v3.652h-1.062V46.244z M103.551,51.041
		c1.413,0,2.421-0.725,2.421-1.937v-0.027c0-1.158-0.888-1.855-2.408-1.855h-2.905v3.819H103.551z"/>
	<rect x="115.825" y="46.244" width="1.062" height="9.408"/>
	<path d="M125.64,50.975v-0.026c0-2.595,1.948-4.868,4.812-4.868c2.867,0,4.789,2.245,4.789,4.84c0.015,0.016,0.015,0.016,0,0.028
		c0,2.596-1.951,4.868-4.811,4.868C127.563,55.816,125.64,53.568,125.64,50.975 M134.138,50.975v-0.026
		c0-2.136-1.559-3.892-3.709-3.892c-2.154,0-3.687,1.724-3.687,3.863v0.028c0,2.136,1.559,3.887,3.709,3.887
		C132.605,54.835,134.138,53.117,134.138,50.975"/>
	<path d="M143.898,46.244h4.049c1.154,0,2.082,0.348,2.677,0.934c0.453,0.46,0.724,1.122,0.724,1.86v0.029
		c0,1.557-1.075,2.471-2.557,2.74l2.892,3.845h-1.302L147.652,52h-0.029h-2.661v3.652h-1.063V46.244z M147.852,51.041
		c1.414,0,2.421-0.725,2.421-1.937v-0.027c0-1.158-0.887-1.855-2.409-1.855h-2.903v3.819H147.852z"/>
	<path d="M170.061,50.975v-0.026c0-2.666,1.989-4.868,4.76-4.868c1.711,0,2.73,0.604,3.674,1.494l-0.727,0.779
		c-0.794-0.755-1.681-1.297-2.959-1.297c-2.085,0-3.646,1.699-3.646,3.863v0.028c0,2.179,1.572,3.887,3.646,3.887
		c1.291,0,2.138-0.498,3.04-1.356l0.699,0.682c-0.982,0.995-2.057,1.656-3.766,1.656C172.062,55.816,170.061,53.677,170.061,50.975"
		/>
	<path d="M186.125,50.975v-0.026c0-2.595,1.952-4.868,4.814-4.868c2.864,0,4.789,2.245,4.789,4.84c0.013,0.016,0.013,0.016,0,0.028
		c0,2.596-1.949,4.868-4.817,4.868C188.047,55.816,186.125,53.568,186.125,50.975 M194.623,50.975v-0.026
		c0-2.136-1.559-3.892-3.711-3.892c-2.15,0-3.683,1.724-3.683,3.863v0.028c0,2.136,1.561,3.887,3.71,3.887
		C193.091,54.835,194.623,53.117,194.623,50.975"/>
	<polygon points="204.384,46.244 205.378,46.244 211.307,53.784 211.307,46.244 212.343,46.244 212.343,55.652 211.496,55.652 
		205.419,47.938 205.419,55.652 204.384,55.652 	"/>
	<path d="M220.8,54.28l0.658-0.775c0.981,0.889,1.919,1.33,3.229,1.33c1.262,0,2.099-0.675,2.099-1.597v-0.033
		c0-0.875-0.477-1.371-2.451-1.784c-2.161-0.473-3.159-1.176-3.159-2.718V48.68c0-1.483,1.306-2.572,3.093-2.572
		c1.371,0,2.353,0.391,3.312,1.154l-0.621,0.824c-0.874-0.716-1.751-1.029-2.716-1.029c-1.224,0-2.003,0.676-2.003,1.525v0.025
		c0,0.886,0.485,1.384,2.555,1.829c2.098,0.46,3.064,1.224,3.064,2.667v0.023c0,1.614-1.343,2.66-3.214,2.66
		C223.153,55.787,221.928,55.289,220.8,54.28"/>
	<path d="M236.287,51.713v-5.469h1.062v5.403c0,2.029,1.078,3.179,2.878,3.179c1.736,0,2.838-1.052,2.838-3.113v-5.469h1.063v5.393
		c0,2.741-1.574,4.17-3.929,4.17C237.871,55.807,236.287,54.378,236.287,51.713"/>
	<polygon points="253.053,46.244 254.114,46.244 254.114,54.67 259.412,54.67 259.412,55.652 253.053,55.652 	"/>
	<polygon points="268.927,47.221 265.771,47.221 265.771,46.244 273.169,46.244 273.169,47.221 270.005,47.221 270.005,55.652 
		268.927,55.652 	"/>
	<path d="M283.839,46.172h0.996l4.29,9.48h-1.146l-1.099-2.487h-5.128l-1.114,2.487h-1.091L283.839,46.172z M286.463,52.209
		l-2.142-4.798l-2.148,4.798H286.463z"/>
	<polygon points="298.669,47.221 295.512,47.221 295.512,46.244 302.905,46.244 302.905,47.221 299.745,47.221 299.745,55.652 
		298.669,55.652 	"/>
	<rect x="311.399" y="46.244" width="1.061" height="9.408"/>
	<path d="M321.215,50.975v-0.026c0-2.595,1.95-4.868,4.815-4.868s4.786,2.245,4.786,4.84c0.013,0.016,0.013,0.016,0,0.028
		c0,2.596-1.951,4.868-4.815,4.868C323.14,55.816,321.215,53.568,321.215,50.975 M329.715,50.975v-0.026
		c0-2.136-1.56-3.892-3.714-3.892c-2.15,0-3.684,1.724-3.684,3.863v0.028c0,2.136,1.562,3.887,3.713,3.887
		C328.181,54.835,329.715,53.117,329.715,50.975"/>
	<polygon points="339.471,46.244 340.467,46.244 346.398,53.784 346.398,46.244 347.433,46.244 347.433,55.652 346.584,55.652 
		340.506,47.938 340.506,55.652 339.471,55.652 	"/>
</g>
</svg>
